<svg xmlns="http://www.w3.org/2000/svg" viewBox="0 0 600 600" role="img" aria-labelledby="t d"><title id="t">Овен</title><desc id="d">Векторний образ знаку Овен для LUMEN ARCANA</desc><defs><radialGradient id="a" cx="50%" cy="42%" r="58%"><stop offset="0" stop-color="#d65b35" stop-opacity=".34"/><stop offset=".68" stop-color="#d65b35" stop-opacity=".08"/><stop offset="1" stop-color="#d65b35" stop-opacity="0"/></radialGradient><linearGradient id="g" x1="0" y1="0" x2="1" y2="1"><stop stop-color="#ffb36b"/><stop offset=".5" stop-color="#fff0b5"/><stop offset="1" stop-color="#ffb36b"/></linearGradient><filter id="gl"><feGaussianBlur stdDeviation="5" result="b"/><feMerge><feMergeNode in="b"/><feMergeNode in="SourceGraphic"/></feMerge></filter></defs><circle cx="300" cy="280" r="245" fill="url(#a)"/><circle cx="300" cy="280" r="218" fill="none" stroke="url(#g)" stroke-width="3" opacity=".88"/><circle cx="300" cy="280" r="190" fill="none" stroke="#ffb36b" stroke-width="1.2" opacity=".35" stroke-dasharray="3 12"/><g fill="none" stroke="url(#g)" stroke-width="12" stroke-linecap="round" stroke-linejoin="round" filter="url(#gl)">M190 250 C120 150 150 80 235 120 C275 140 285 190 300 235 C315 190 325 140 365 120 C450 80 480 150 410 250 C390 205 365 190 340 205 C320 220 312 250 300 285 C288 250 280 220 260 205 C235 190 210 205 190 250Z</g><circle cx="300" cy="280" r="92" fill="#071b17" fill-opacity=".82" stroke="#ffb36b" stroke-width="2"/><text x="300" y="320" text-anchor="middle" font-size="112" font-family="Georgia,'Times New Roman','Segoe UI Symbol',serif" fill="url(#g)" filter="url(#gl)">♈</text><g fill="#ffb36b" opacity=".9"><circle cx="115" cy="130" r="4"/><circle cx="470" cy="155" r="3"/><circle cx="455" cy="390" r="4"/><circle cx="135" cy="410" r="3"/><path d="M92 270 l6 14 14 6-14 6-6 14-6-14-14-6 14-6Z"/><path d="M500 265 l4 10 10 4-10 4-4 10-4-10-10-4 10-4Z"/></g></svg>